# xmcd
# 
# Track frame offsets:
#     150
#     38015
#     42125
#     58671
#     71452
#     107767
#     120332
#     146999
#     174787
#     216022
# 
# Disc length: 3060
# 
# Revision: 1
# Processed by: cddbd v1.5.2PL0 Copyright (c) Steve Scherf et al.
# Submitted via: fre:ac v1.0.27
# 
DISCID=850bf20a
DTITLE=Frode Haltli - Passing Images
DYEAR=2007
DGENRE=Jazz
TTITLE0=Psalm
TTITLE1=Inter
TTITLE2=The Letter
TTITLE3=Lude
TTITLE4=Vandring
TTITLE5=Pre
TTITLE6=Jag haver ingen kärare
TTITLE7=Lyrisk vals
TTITLE8=Passing Images
TTITLE9=Vals
EXTD=YEAR: 2007
EXTT0=
EXTT1=
EXTT2=
EXTT3=
EXTT4=
EXTT5=
EXTT6=
EXTT7=
EXTT8=
EXTT9=
PLAYORDER=
